<svg width="30" height="49" viewBox="0 0 30 49" fill="none" xmlns="http://www.w3.org/2000/svg">
<path d="M27.5 9.14981V20.4248C27.5 21.7998 26.375 22.9248 25 22.9248H7.5L2.5 27.9248V5.4248C2.5 4.0498 3.625 2.9248 5 2.9248H17.625C17.55 3.3248 17.5 3.7498 17.5 4.1748C17.5 7.6248 20.3 10.4248 23.75 10.4248C25.1625 10.4248 26.45 9.93731 27.5 9.14981ZM20 4.1748C20 6.2498 21.675 7.9248 23.75 7.9248C25.825 7.9248 27.5 6.2498 27.5 4.1748C27.5 2.0998 25.825 0.424805 23.75 0.424805C21.675 0.424805 20 2.0998 20 4.1748Z" fill="#888888"/>
<path d="M6.476 38.0328C6.14 38.0328 5.836 38.1048 5.564 38.2488C5.292 38.3928 5.06 38.6008 4.868 38.8728C4.684 39.1448 4.544 39.4728 4.448 39.8568C4.352 40.2408 4.304 40.6728 4.304 41.1528C4.304 41.8008 4.384 42.3568 4.544 42.8208C4.704 43.2768 4.948 43.6288 5.276 43.8768C5.604 44.1248 6.016 44.2488 6.512 44.2488C6.856 44.2488 7.192 44.2128 7.52 44.1408C7.848 44.0608 8.18 43.9568 8.516 43.8288V45.1368C8.188 45.2808 7.848 45.3848 7.496 45.4488C7.152 45.5128 6.764 45.5448 6.332 45.5448C5.492 45.5448 4.8 45.3648 4.256 45.0048C3.712 44.6368 3.304 44.1248 3.032 43.4688C2.768 42.8048 2.636 42.0288 2.636 41.1408C2.636 40.4928 2.72 39.9008 2.888 39.3648C3.056 38.8288 3.304 38.3648 3.632 37.9728C3.96 37.5808 4.364 37.2768 4.844 37.0608C5.324 36.8448 5.872 36.7368 6.488 36.7368C6.896 36.7368 7.308 36.7888 7.724 36.8928C8.148 36.9888 8.52 37.1248 8.84 37.3008L8.3 38.5608C8.02 38.4248 7.728 38.3048 7.424 38.2008C7.128 38.0888 6.812 38.0328 6.476 38.0328ZM11.6553 38.4768C11.6553 38.7328 11.6433 38.9848 11.6193 39.2328C11.6033 39.4728 11.5873 39.6528 11.5713 39.7728H11.6673C11.7953 39.5488 11.9473 39.3688 12.1233 39.2328C12.3073 39.0888 12.5113 38.9808 12.7353 38.9088C12.9673 38.8368 13.2073 38.8008 13.4553 38.8008C13.9113 38.8008 14.3033 38.8848 14.6313 39.0528C14.9593 39.2208 15.2153 39.4808 15.3993 39.8328C15.5833 40.1768 15.6753 40.6288 15.6753 41.1888V45.4248H14.0793V41.4888C14.0793 40.9928 13.9953 40.6248 13.8273 40.3848C13.6593 40.1448 13.3953 40.0248 13.0353 40.0248C12.6913 40.0248 12.4153 40.1128 12.2073 40.2888C11.9993 40.4568 11.8553 40.7088 11.7753 41.0448C11.6953 41.3728 11.6553 41.7768 11.6553 42.2568V45.4248H10.0593V36.3048H11.6553V38.4768ZM19.9758 38.8008C20.7598 38.8008 21.3598 38.9848 21.7758 39.3528C22.1918 39.7128 22.3998 40.2808 22.3998 41.0568V45.4248H21.2838L20.9718 44.5248H20.9238C20.7478 44.7568 20.5678 44.9528 20.3838 45.1128C20.1998 45.2648 19.9878 45.3728 19.7478 45.4368C19.5078 45.5088 19.2198 45.5448 18.8838 45.5448C18.5238 45.5448 18.1998 45.4728 17.9118 45.3288C17.6238 45.1848 17.3958 44.9648 17.2278 44.6688C17.0598 44.3648 16.9758 43.9848 16.9758 43.5288C16.9758 42.8568 17.2078 42.3528 17.6718 42.0168C18.1358 41.6728 18.8318 41.4848 19.7598 41.4528L20.8038 41.4168V41.0928C20.8038 40.6768 20.7158 40.3808 20.5398 40.2048C20.3638 40.0288 20.1238 39.9408 19.8198 39.9408C19.5318 39.9408 19.2398 39.9888 18.9438 40.0848C18.6558 40.1808 18.3718 40.2928 18.0918 40.4208L17.5998 39.3648C17.9278 39.1968 18.2918 39.0608 18.6918 38.9568C19.0918 38.8528 19.5198 38.8008 19.9758 38.8008ZM20.1318 42.3768C19.5638 42.4008 19.1678 42.5168 18.9438 42.7248C18.7198 42.9248 18.6078 43.1968 18.6078 43.5408C18.6078 43.8448 18.6838 44.0648 18.8358 44.2008C18.9958 44.3368 19.2038 44.4048 19.4598 44.4048C19.8358 44.4048 20.1558 44.2808 20.4198 44.0328C20.6838 43.7768 20.8158 43.4008 20.8158 42.9048V42.3528L20.1318 42.3768ZM26.6307 44.3328C26.8067 44.3328 26.9747 44.3168 27.1347 44.2848C27.3027 44.2448 27.4587 44.2008 27.6027 44.1528V45.2808C27.4347 45.3528 27.2307 45.4128 26.9907 45.4608C26.7507 45.5168 26.4827 45.5448 26.1867 45.5448C25.8187 45.5448 25.4907 45.4848 25.2027 45.3648C24.9147 45.2368 24.6867 45.0208 24.5187 44.7168C24.3587 44.4128 24.2787 43.9888 24.2787 43.4448V40.0608H23.4627V39.4008L24.3747 38.8728L24.8547 37.4928H25.8627V38.9208H27.5427V40.0608H25.8627V43.4328C25.8627 43.7368 25.9307 43.9648 26.0667 44.1168C26.2107 44.2608 26.3987 44.3328 26.6307 44.3328Z" fill="#888888"/>
</svg>
