<svg width="58" height="49" viewBox="0 0 58 49" fill="none" xmlns="http://www.w3.org/2000/svg">
<g clip-path="url(#clip0_325_168)">
<path fill-rule="evenodd" clip-rule="evenodd" d="M34.8374 16.8374C36.5499 17.9999 37.7499 19.5749 37.7499 21.6749V25.4249H41.4999C42.1874 25.4249 42.7499 24.8624 42.7499 24.1749V21.6749C42.7499 18.9499 38.2874 17.3374 34.8374 16.8374Z" fill="#888888"/>
<path d="M25.25 15.4248C28.0114 15.4248 30.25 13.1862 30.25 10.4248C30.25 7.66338 28.0114 5.4248 25.25 5.4248C22.4886 5.4248 20.25 7.66338 20.25 10.4248C20.25 13.1862 22.4886 15.4248 25.25 15.4248Z" fill="#888888"/>
<path fill-rule="evenodd" clip-rule="evenodd" d="M32.7499 15.4248C35.5124 15.4248 37.7499 13.1873 37.7499 10.4248C37.7499 7.6623 35.5124 5.4248 32.7499 5.4248C32.1624 5.4248 31.6124 5.5498 31.0874 5.7248C32.1249 7.0123 32.7499 8.6498 32.7499 10.4248C32.7499 12.1998 32.1249 13.8373 31.0874 15.1248C31.6124 15.2998 32.1624 15.4248 32.7499 15.4248Z" fill="#888888"/>
<path fill-rule="evenodd" clip-rule="evenodd" d="M25.25 16.6748C21.9125 16.6748 15.25 18.3498 15.25 21.6748V24.1748C15.25 24.8623 15.8125 25.4248 16.5 25.4248H34C34.6875 25.4248 35.25 24.8623 35.25 24.1748V21.6748C35.25 18.3498 28.5875 16.6748 25.25 16.6748Z" fill="#888888"/>
</g>
<path d="M4.976 38.0328C4.64 38.0328 4.336 38.1048 4.064 38.2488C3.792 38.3928 3.56 38.6008 3.368 38.8728C3.184 39.1448 3.044 39.4728 2.948 39.8568C2.852 40.2408 2.804 40.6728 2.804 41.1528C2.804 41.8008 2.884 42.3568 3.044 42.8208C3.204 43.2768 3.448 43.6288 3.776 43.8768C4.104 44.1248 4.516 44.2488 5.012 44.2488C5.356 44.2488 5.692 44.2128 6.02 44.1408C6.348 44.0608 6.68 43.9568 7.016 43.8288V45.1368C6.688 45.2808 6.348 45.3848 5.996 45.4488C5.652 45.5128 5.264 45.5448 4.832 45.5448C3.992 45.5448 3.3 45.3648 2.756 45.0048C2.212 44.6368 1.804 44.1248 1.532 43.4688C1.268 42.8048 1.136 42.0288 1.136 41.1408C1.136 40.4928 1.22 39.9008 1.388 39.3648C1.556 38.8288 1.804 38.3648 2.132 37.9728C2.46 37.5808 2.864 37.2768 3.344 37.0608C3.824 36.8448 4.372 36.7368 4.988 36.7368C5.396 36.7368 5.808 36.7888 6.224 36.8928C6.648 36.9888 7.02 37.1248 7.34 37.3008L6.8 38.5608C6.52 38.4248 6.228 38.3048 5.924 38.2008C5.628 38.0888 5.312 38.0328 4.976 38.0328ZM14.1513 42.1608C14.1513 42.7048 14.0833 43.1848 13.9473 43.6008C13.8113 44.0168 13.6113 44.3728 13.3473 44.6688C13.0913 44.9568 12.7793 45.1768 12.4113 45.3288C12.0433 45.4728 11.6313 45.5448 11.1753 45.5448C10.7513 45.5448 10.3553 45.4728 9.98731 45.3288C9.62731 45.1768 9.31531 44.9568 9.05131 44.6688C8.79531 44.3728 8.59531 44.0168 8.45131 43.6008C8.30731 43.1848 8.23531 42.7048 8.23531 42.1608C8.23531 41.4408 8.35131 40.8328 8.58331 40.3368C8.82331 39.8328 9.16731 39.4528 9.61531 39.1968C10.0633 38.9328 10.5953 38.8008 11.2113 38.8008C11.7873 38.8008 12.2953 38.9328 12.7353 39.1968C13.1753 39.4528 13.5193 39.8328 13.7673 40.3368C14.0233 40.8328 14.1513 41.4408 14.1513 42.1608ZM9.85531 42.1608C9.85531 42.6168 9.90331 43.0088 9.99931 43.3368C10.0953 43.6568 10.2393 43.9008 10.4313 44.0688C10.6313 44.2368 10.8873 44.3208 11.1993 44.3208C11.5113 44.3208 11.7633 44.2368 11.9553 44.0688C12.1553 43.9008 12.2993 43.6568 12.3873 43.3368C12.4833 43.0088 12.5313 42.6168 12.5313 42.1608C12.5313 41.6968 12.4833 41.3088 12.3873 40.9968C12.2913 40.6768 12.1433 40.4368 11.9433 40.2768C11.7513 40.1088 11.4993 40.0248 11.1873 40.0248C10.7153 40.0248 10.3753 40.2088 10.1673 40.5768C9.95931 40.9448 9.85531 41.4728 9.85531 42.1608ZM21.1117 38.9208V45.4248H19.8877L19.6837 44.5848H19.5997C19.4717 44.8088 19.3077 44.9928 19.1077 45.1368C18.9077 45.2728 18.6877 45.3728 18.4477 45.4368C18.2077 45.5088 17.9597 45.5448 17.7037 45.5448C17.2557 45.5448 16.8677 45.4608 16.5397 45.2928C16.2117 45.1248 15.9557 44.8688 15.7717 44.5248C15.5957 44.1728 15.5077 43.7208 15.5077 43.1688V38.9208H17.1037V42.8688C17.1037 43.3488 17.1837 43.7128 17.3437 43.9608C17.5117 44.2008 17.7757 44.3208 18.1357 44.3208C18.4957 44.3208 18.7757 44.2368 18.9757 44.0688C19.1837 43.8928 19.3277 43.6408 19.4077 43.3128C19.4877 42.9848 19.5277 42.5808 19.5277 42.1008V38.9208H21.1117ZM26.2762 38.8008C26.9562 38.8008 27.4922 38.9888 27.8842 39.3648C28.2762 39.7408 28.4722 40.3488 28.4722 41.1888V45.4248H26.8762V41.4888C26.8762 41.0008 26.7922 40.6368 26.6242 40.3968C26.4562 40.1488 26.1922 40.0248 25.8322 40.0248C25.2962 40.0248 24.9322 40.2168 24.7402 40.6008C24.5482 40.9768 24.4522 41.5248 24.4522 42.2448V45.4248H22.8562V38.9208H24.0802L24.3082 39.7728H24.3682C24.5122 39.5488 24.6802 39.3648 24.8722 39.2208C25.0642 39.0768 25.2802 38.9728 25.5202 38.9088C25.7602 38.8368 26.0122 38.8008 26.2762 38.8008ZM34.4527 43.5408C34.4527 43.9728 34.3567 44.3408 34.1647 44.6448C33.9727 44.9408 33.6887 45.1648 33.3127 45.3168C32.9367 45.4688 32.4647 45.5448 31.8967 45.5448C31.4647 45.5448 31.0887 45.5128 30.7687 45.4488C30.4487 45.3848 30.1407 45.2848 29.8447 45.1488V43.8648C30.1647 44.0168 30.5087 44.1448 30.8767 44.2488C31.2527 44.3528 31.5927 44.4048 31.8967 44.4048C32.2567 44.4048 32.5167 44.3408 32.6767 44.2128C32.8367 44.0848 32.9167 43.9128 32.9167 43.6968C32.9167 43.5688 32.8807 43.4528 32.8087 43.3488C32.7447 43.2448 32.6087 43.1368 32.4007 43.0248C32.2007 42.9048 31.9087 42.7568 31.5247 42.5808C31.1487 42.4128 30.8367 42.2448 30.5887 42.0768C30.3407 41.9088 30.1527 41.7088 30.0247 41.4768C29.8967 41.2368 29.8327 40.9368 29.8327 40.5768C29.8327 39.9928 30.0527 39.5528 30.4927 39.2568C30.9407 38.9528 31.5247 38.8008 32.2447 38.8008C32.6367 38.8008 33.0007 38.8408 33.3367 38.9208C33.6807 38.9928 34.0247 39.1128 34.3687 39.2808L33.9007 40.3968C33.7087 40.3088 33.5127 40.2328 33.3127 40.1688C33.1207 40.0968 32.9327 40.0408 32.7487 40.0008C32.5727 39.9608 32.3967 39.9408 32.2207 39.9408C31.9407 39.9408 31.7287 39.9928 31.5847 40.0968C31.4407 40.1928 31.3687 40.3328 31.3687 40.5168C31.3687 40.6448 31.4047 40.7608 31.4767 40.8648C31.5487 40.9608 31.6847 41.0608 31.8847 41.1648C32.0847 41.2688 32.3687 41.4008 32.7367 41.5608C33.1047 41.7048 33.4167 41.8608 33.6727 42.0288C33.9287 42.1888 34.1207 42.3888 34.2487 42.6288C34.3847 42.8688 34.4527 43.1728 34.4527 43.5408ZM38.338 38.8008C38.898 38.8008 39.378 38.9208 39.778 39.1608C40.186 39.3928 40.502 39.7288 40.726 40.1688C40.95 40.6008 41.062 41.1288 41.062 41.7528V42.5208H37.078C37.094 43.1128 37.238 43.5728 37.51 43.9008C37.79 44.2208 38.182 44.3808 38.686 44.3808C39.086 44.3808 39.442 44.3408 39.754 44.2608C40.066 44.1728 40.39 44.0488 40.726 43.8888V45.1008C40.422 45.2528 40.106 45.3648 39.778 45.4368C39.45 45.5088 39.046 45.5448 38.566 45.5448C37.958 45.5448 37.418 45.4248 36.946 45.1848C36.482 44.9368 36.118 44.5648 35.854 44.0688C35.59 43.5728 35.458 42.9568 35.458 42.2208C35.458 41.4768 35.578 40.8528 35.818 40.3488C36.058 39.8368 36.394 39.4528 36.826 39.1968C37.266 38.9328 37.77 38.8008 38.338 38.8008ZM38.362 39.9168C38.002 39.9168 37.71 40.0488 37.486 40.3128C37.27 40.5688 37.142 40.9528 37.102 41.4648H39.55C39.55 41.1608 39.506 40.8928 39.418 40.6608C39.33 40.4288 39.198 40.2488 39.022 40.1208C38.854 39.9848 38.634 39.9168 38.362 39.9168ZM44.0225 45.4248H42.4265V36.3048H44.0225V45.4248ZM51.3466 42.1608C51.3466 42.7048 51.2786 43.1848 51.1426 43.6008C51.0066 44.0168 50.8066 44.3728 50.5426 44.6688C50.2866 44.9568 49.9746 45.1768 49.6066 45.3288C49.2386 45.4728 48.8266 45.5448 48.3706 45.5448C47.9466 45.5448 47.5506 45.4728 47.1826 45.3288C46.8226 45.1768 46.5106 44.9568 46.2466 44.6688C45.9906 44.3728 45.7906 44.0168 45.6466 43.6008C45.5026 43.1848 45.4306 42.7048 45.4306 42.1608C45.4306 41.4408 45.5466 40.8328 45.7786 40.3368C46.0186 39.8328 46.3626 39.4528 46.8106 39.1968C47.2586 38.9328 47.7906 38.8008 48.4066 38.8008C48.9826 38.8008 49.4906 38.9328 49.9306 39.1968C50.3706 39.4528 50.7146 39.8328 50.9626 40.3368C51.2186 40.8328 51.3466 41.4408 51.3466 42.1608ZM47.0506 42.1608C47.0506 42.6168 47.0986 43.0088 47.1946 43.3368C47.2906 43.6568 47.4346 43.9008 47.6266 44.0688C47.8266 44.2368 48.0826 44.3208 48.3946 44.3208C48.7066 44.3208 48.9586 44.2368 49.1506 44.0688C49.3506 43.9008 49.4946 43.6568 49.5826 43.3368C49.6786 43.0088 49.7266 42.6168 49.7266 42.1608C49.7266 41.6968 49.6786 41.3088 49.5826 40.9968C49.4866 40.6768 49.3386 40.4368 49.1386 40.2768C48.9466 40.1088 48.6946 40.0248 48.3826 40.0248C47.9106 40.0248 47.5706 40.2088 47.3626 40.5768C47.1546 40.9448 47.0506 41.4728 47.0506 42.1608ZM56.063 38.8008C56.175 38.8008 56.291 38.8048 56.411 38.8128C56.531 38.8208 56.631 38.8368 56.711 38.8608L56.567 40.2648C56.487 40.2488 56.391 40.2368 56.279 40.2288C56.175 40.2128 56.063 40.2048 55.943 40.2048C55.743 40.2048 55.547 40.2448 55.355 40.3248C55.163 40.3968 54.991 40.5088 54.839 40.6608C54.687 40.8048 54.563 40.9928 54.467 41.2248C54.379 41.4568 54.335 41.7328 54.335 42.0528V45.4248H52.739V38.9208H53.963L54.179 40.0488H54.263C54.383 39.8168 54.531 39.6088 54.707 39.4248C54.891 39.2328 55.095 39.0808 55.319 38.9688C55.551 38.8568 55.799 38.8008 56.063 38.8008Z" fill="#888888"/>
<defs>
<clipPath id="clip0_325_168">
<rect width="30" height="30" fill="white" transform="translate(14 0.424805)"/>
</clipPath>
</defs>
</svg>
