<svg width="34" height="51" viewBox="0 0 34 51" fill="none" xmlns="http://www.w3.org/2000/svg">
<path d="M13.6668 26.0917V17.7583H20.3335V26.0917C20.3335 27.0083 21.0835 27.7583 22.0002 27.7583H27.0002C27.9168 27.7583 28.6668 27.0083 28.6668 26.0917V14.425H31.5002C32.2668 14.425 32.6335 13.475 32.0502 12.975L18.1168 0.425C17.4835 -0.141667 16.5168 -0.141667 15.8835 0.425L1.95016 12.975C1.3835 13.475 1.7335 14.425 2.50016 14.425H5.3335V26.0917C5.3335 27.0083 6.0835 27.7583 7.00016 27.7583H12.0002C12.9168 27.7583 13.6668 27.0083 13.6668 26.0917Z" fill="#888888"/>
<path d="M7.548 47.4248H5.928V43.6208H2.616V47.4248H1.008V38.8568H2.616V42.3128H5.928V38.8568H7.548V47.4248ZM15.0107 44.1608C15.0107 44.7048 14.9427 45.1848 14.8067 45.6008C14.6707 46.0168 14.4707 46.3728 14.2067 46.6688C13.9507 46.9568 13.6387 47.1768 13.2707 47.3288C12.9027 47.4728 12.4907 47.5448 12.0347 47.5448C11.6107 47.5448 11.2147 47.4728 10.8467 47.3288C10.4867 47.1768 10.1747 46.9568 9.91069 46.6688C9.65469 46.3728 9.45469 46.0168 9.31069 45.6008C9.16669 45.1848 9.09469 44.7048 9.09469 44.1608C9.09469 43.4408 9.21069 42.8328 9.44269 42.3368C9.68269 41.8328 10.0267 41.4528 10.4747 41.1968C10.9227 40.9328 11.4547 40.8008 12.0707 40.8008C12.6467 40.8008 13.1547 40.9328 13.5947 41.1968C14.0347 41.4528 14.3787 41.8328 14.6267 42.3368C14.8827 42.8328 15.0107 43.4408 15.0107 44.1608ZM10.7147 44.1608C10.7147 44.6168 10.7627 45.0088 10.8587 45.3368C10.9547 45.6568 11.0987 45.9008 11.2907 46.0688C11.4907 46.2368 11.7467 46.3208 12.0587 46.3208C12.3707 46.3208 12.6227 46.2368 12.8147 46.0688C13.0147 45.9008 13.1587 45.6568 13.2467 45.3368C13.3427 45.0088 13.3907 44.6168 13.3907 44.1608C13.3907 43.6968 13.3427 43.3088 13.2467 42.9968C13.1507 42.6768 13.0027 42.4368 12.8027 42.2768C12.6107 42.1088 12.3587 42.0248 12.0467 42.0248C11.5747 42.0248 11.2347 42.2088 11.0267 42.5768C10.8187 42.9448 10.7147 43.4728 10.7147 44.1608ZM23.5431 40.8008C24.2471 40.8008 24.7751 40.9888 25.1271 41.3648C25.4791 41.7408 25.6551 42.3488 25.6551 43.1888V47.4248H24.0831V43.4768C24.0831 42.9968 24.0031 42.6368 23.8431 42.3968C23.6831 42.1488 23.4351 42.0248 23.0991 42.0248C22.6351 42.0248 22.3071 42.1968 22.1151 42.5408C21.9231 42.8848 21.8271 43.3848 21.8271 44.0408V47.4248H20.2431V43.4768C20.2431 43.1568 20.2071 42.8888 20.1351 42.6728C20.0631 42.4568 19.9551 42.2968 19.8111 42.1928C19.6671 42.0808 19.4831 42.0248 19.2591 42.0248C18.9391 42.0248 18.6871 42.1128 18.5031 42.2888C18.3191 42.4568 18.1871 42.7048 18.1071 43.0328C18.0351 43.3608 17.9991 43.7648 17.9991 44.2448V47.4248H16.4031V40.9208H17.6271L17.8551 41.7728H17.9271C18.0471 41.5488 18.1951 41.3648 18.3711 41.2208C18.5551 41.0768 18.7631 40.9728 18.9951 40.9088C19.2351 40.8368 19.4831 40.8008 19.7391 40.8008C20.1951 40.8008 20.5751 40.8848 20.8791 41.0528C21.1911 41.2128 21.4311 41.4648 21.5991 41.8088H21.6831C21.8831 41.4568 22.1471 41.2008 22.4751 41.0408C22.8111 40.8808 23.1671 40.8008 23.5431 40.8008ZM29.9161 40.8008C30.4761 40.8008 30.9561 40.9208 31.3561 41.1608C31.7641 41.3928 32.0801 41.7288 32.3041 42.1688C32.5281 42.6008 32.6401 43.1288 32.6401 43.7528V44.5208H28.6561C28.6721 45.1128 28.8161 45.5728 29.0881 45.9008C29.3681 46.2208 29.7601 46.3808 30.2641 46.3808C30.6641 46.3808 31.0201 46.3408 31.3321 46.2608C31.6441 46.1728 31.9681 46.0488 32.3041 45.8888V47.1008C32.0001 47.2528 31.6841 47.3648 31.3561 47.4368C31.0281 47.5088 30.6241 47.5448 30.1441 47.5448C29.5361 47.5448 28.9961 47.4248 28.5241 47.1848C28.0601 46.9368 27.6961 46.5648 27.4321 46.0688C27.1681 45.5728 27.0361 44.9568 27.0361 44.2208C27.0361 43.4768 27.1561 42.8528 27.3961 42.3488C27.6361 41.8368 27.9721 41.4528 28.4041 41.1968C28.8441 40.9328 29.3481 40.8008 29.9161 40.8008ZM29.9401 41.9168C29.5801 41.9168 29.2881 42.0488 29.0641 42.3128C28.8481 42.5688 28.7201 42.9528 28.6801 43.4648H31.1281C31.1281 43.1608 31.0841 42.8928 30.9961 42.6608C30.9081 42.4288 30.7761 42.2488 30.6001 42.1208C30.4321 41.9848 30.2121 41.9168 29.9401 41.9168Z" fill="#888888"/>
</svg>
