<svg width="68" height="50" viewBox="0 0 68 50" fill="none" xmlns="http://www.w3.org/2000/svg">
<g clip-path="url(#clip0_325_170)">
<path d="M48.1667 11.3334C48.1667 10.5543 47.5292 9.91677 46.75 9.91677H36.8334C36.0542 9.91677 35.4167 10.5543 35.4167 11.3334C35.4167 12.1126 36.0542 12.7501 36.8334 12.7501H46.75C47.5292 12.7501 48.1667 12.1126 48.1667 11.3334ZM35.4167 22.6668C35.4167 23.4459 36.0542 24.0834 36.8334 24.0834H46.75C47.5292 24.0834 48.1667 23.4459 48.1667 22.6668C48.1667 21.8876 47.5292 21.2501 46.75 21.2501H36.8334C36.0542 21.2501 35.4167 21.8876 35.4167 22.6668ZM31.8325 6.55927C32.385 7.11177 32.385 8.00427 31.8325 8.55677L25.84 14.5776C25.2875 15.1301 24.395 15.1301 23.8284 14.5776L20.825 11.5601C20.2725 11.0076 20.2725 10.1151 20.825 9.5626C21.3775 9.0101 22.27 9.0101 22.8225 9.5626L24.8342 11.5743L29.8492 6.55927C30.3875 6.02093 31.2942 6.02093 31.8325 6.55927ZM31.8467 17.9068C32.3992 18.4593 32.3992 19.3518 31.8467 19.9043L25.8542 25.9251C25.3017 26.4776 24.4092 26.4776 23.8425 25.9251L20.825 22.8934C20.2725 22.3409 20.2725 21.4484 20.825 20.8959C21.3775 20.3434 22.27 20.3434 22.8225 20.8959L24.8342 22.9076L29.8492 17.8926C30.3875 17.3543 31.2942 17.3543 31.8467 17.9068Z" fill="#888888"/>
</g>
<path d="M3.896 38.432C4.608 38.432 5.196 38.524 5.66 38.708C6.124 38.892 6.468 39.172 6.692 39.548C6.916 39.916 7.028 40.384 7.028 40.952C7.028 41.368 6.96 41.724 6.824 42.02C6.688 42.316 6.504 42.564 6.272 42.764C6.048 42.956 5.804 43.112 5.54 43.232L7.844 47H6.02L4.16 43.616H3.116V47H1.508V38.432H3.896ZM3.824 39.716H3.116V42.356H3.848C4.192 42.356 4.476 42.304 4.7 42.2C4.932 42.096 5.104 41.944 5.216 41.744C5.336 41.544 5.396 41.296 5.396 41C5.396 40.688 5.34 40.44 5.228 40.256C5.116 40.064 4.944 39.928 4.712 39.848C4.48 39.76 4.184 39.716 3.824 39.716ZM11.2794 40.376C11.8394 40.376 12.3194 40.496 12.7194 40.736C13.1274 40.968 13.4434 41.304 13.6674 41.744C13.8914 42.176 14.0034 42.704 14.0034 43.328V44.096H10.0194C10.0354 44.688 10.1794 45.148 10.4514 45.476C10.7314 45.796 11.1234 45.956 11.6274 45.956C12.0274 45.956 12.3834 45.916 12.6954 45.836C13.0074 45.748 13.3314 45.624 13.6674 45.464V46.676C13.3634 46.828 13.0474 46.94 12.7194 47.012C12.3914 47.084 11.9874 47.12 11.5074 47.12C10.8994 47.12 10.3594 47 9.88738 46.76C9.42338 46.512 9.05938 46.14 8.79538 45.644C8.53138 45.148 8.39938 44.532 8.39938 43.796C8.39938 43.052 8.51938 42.428 8.75938 41.924C8.99938 41.412 9.33538 41.028 9.76738 40.772C10.2074 40.508 10.7114 40.376 11.2794 40.376ZM11.3034 41.492C10.9434 41.492 10.6514 41.624 10.4274 41.888C10.2114 42.144 10.0834 42.528 10.0434 43.04H12.4914C12.4914 42.736 12.4474 42.468 12.3594 42.236C12.2714 42.004 12.1394 41.824 11.9634 41.696C11.7954 41.56 11.5754 41.492 11.3034 41.492ZM19.6519 45.116C19.6519 45.548 19.5559 45.916 19.3639 46.22C19.1719 46.516 18.8879 46.74 18.5119 46.892C18.1359 47.044 17.6639 47.12 17.0959 47.12C16.6639 47.12 16.2879 47.088 15.9679 47.024C15.6479 46.96 15.3399 46.86 15.0439 46.724V45.44C15.3639 45.592 15.7079 45.72 16.0759 45.824C16.4519 45.928 16.7919 45.98 17.0959 45.98C17.4559 45.98 17.7159 45.916 17.8759 45.788C18.0359 45.66 18.1159 45.488 18.1159 45.272C18.1159 45.144 18.0799 45.028 18.0079 44.924C17.9439 44.82 17.8079 44.712 17.5999 44.6C17.3999 44.48 17.1079 44.332 16.7239 44.156C16.3479 43.988 16.0359 43.82 15.7879 43.652C15.5399 43.484 15.3519 43.284 15.2239 43.052C15.0959 42.812 15.0319 42.512 15.0319 42.152C15.0319 41.568 15.2519 41.128 15.6919 40.832C16.1399 40.528 16.7239 40.376 17.4439 40.376C17.8359 40.376 18.1999 40.416 18.5359 40.496C18.8799 40.568 19.2239 40.688 19.5679 40.856L19.0999 41.972C18.9079 41.884 18.7119 41.808 18.5119 41.744C18.3199 41.672 18.1319 41.616 17.9479 41.576C17.7719 41.536 17.5959 41.516 17.4199 41.516C17.1399 41.516 16.9279 41.568 16.7839 41.672C16.6399 41.768 16.5679 41.908 16.5679 42.092C16.5679 42.22 16.6039 42.336 16.6759 42.44C16.7479 42.536 16.8839 42.636 17.0839 42.74C17.2839 42.844 17.5679 42.976 17.9359 43.136C18.3039 43.28 18.6159 43.436 18.8719 43.604C19.1279 43.764 19.3199 43.964 19.4479 44.204C19.5839 44.444 19.6519 44.748 19.6519 45.116ZM23.5372 40.376C24.0972 40.376 24.5772 40.496 24.9772 40.736C25.3852 40.968 25.7012 41.304 25.9252 41.744C26.1492 42.176 26.2612 42.704 26.2612 43.328V44.096H22.2772C22.2932 44.688 22.4372 45.148 22.7092 45.476C22.9892 45.796 23.3812 45.956 23.8852 45.956C24.2852 45.956 24.6412 45.916 24.9532 45.836C25.2652 45.748 25.5892 45.624 25.9252 45.464V46.676C25.6212 46.828 25.3052 46.94 24.9772 47.012C24.6492 47.084 24.2452 47.12 23.7652 47.12C23.1572 47.12 22.6172 47 22.1452 46.76C21.6812 46.512 21.3172 46.14 21.0532 45.644C20.7892 45.148 20.6572 44.532 20.6572 43.796C20.6572 43.052 20.7772 42.428 21.0172 41.924C21.2572 41.412 21.5932 41.028 22.0252 40.772C22.4652 40.508 22.9692 40.376 23.5372 40.376ZM23.5612 41.492C23.2012 41.492 22.9092 41.624 22.6852 41.888C22.4692 42.144 22.3412 42.528 22.3012 43.04H24.7492C24.7492 42.736 24.7052 42.468 24.6172 42.236C24.5292 42.004 24.3972 41.824 24.2212 41.696C24.0532 41.56 23.8332 41.492 23.5612 41.492ZM30.9497 40.376C31.0617 40.376 31.1777 40.38 31.2977 40.388C31.4177 40.396 31.5177 40.412 31.5977 40.436L31.4537 41.84C31.3737 41.824 31.2777 41.812 31.1657 41.804C31.0617 41.788 30.9497 41.78 30.8297 41.78C30.6297 41.78 30.4337 41.82 30.2417 41.9C30.0497 41.972 29.8777 42.084 29.7257 42.236C29.5737 42.38 29.4497 42.568 29.3537 42.8C29.2657 43.032 29.2217 43.308 29.2217 43.628V47H27.6257V40.496H28.8497L29.0657 41.624H29.1497C29.2697 41.392 29.4177 41.184 29.5937 41C29.7777 40.808 29.9817 40.656 30.2057 40.544C30.4377 40.432 30.6857 40.376 30.9497 40.376ZM34.1173 47L31.7773 40.496H33.4453L34.6093 44.252C34.6653 44.404 34.7093 44.572 34.7413 44.756C34.7813 44.932 34.8173 45.108 34.8493 45.284C34.8813 45.452 34.8973 45.6 34.8973 45.728H34.9453C34.9613 45.592 34.9813 45.44 35.0053 45.272C35.0373 45.096 35.0773 44.92 35.1253 44.744C35.1733 44.568 35.2173 44.404 35.2573 44.252L36.4333 40.496H38.1013L35.7613 47H34.1173ZM41.5735 40.376C42.3575 40.376 42.9575 40.56 43.3735 40.928C43.7895 41.288 43.9975 41.856 43.9975 42.632V47H42.8815L42.5695 46.1H42.5215C42.3455 46.332 42.1655 46.528 41.9815 46.688C41.7975 46.84 41.5855 46.948 41.3455 47.012C41.1055 47.084 40.8175 47.12 40.4815 47.12C40.1215 47.12 39.7975 47.048 39.5095 46.904C39.2215 46.76 38.9935 46.54 38.8255 46.244C38.6575 45.94 38.5735 45.56 38.5735 45.104C38.5735 44.432 38.8055 43.928 39.2695 43.592C39.7335 43.248 40.4295 43.06 41.3575 43.028L42.4015 42.992V42.668C42.4015 42.252 42.3135 41.956 42.1375 41.78C41.9615 41.604 41.7215 41.516 41.4175 41.516C41.1295 41.516 40.8375 41.564 40.5415 41.66C40.2535 41.756 39.9695 41.868 39.6895 41.996L39.1975 40.94C39.5255 40.772 39.8895 40.636 40.2895 40.532C40.6895 40.428 41.1175 40.376 41.5735 40.376ZM41.7295 43.952C41.1615 43.976 40.7655 44.092 40.5415 44.3C40.3175 44.5 40.2055 44.772 40.2055 45.116C40.2055 45.42 40.2815 45.64 40.4335 45.776C40.5935 45.912 40.8015 45.98 41.0575 45.98C41.4335 45.98 41.7535 45.856 42.0175 45.608C42.2815 45.352 42.4135 44.976 42.4135 44.48V43.928L41.7295 43.952ZM48.2283 45.908C48.4043 45.908 48.5723 45.892 48.7323 45.86C48.9003 45.82 49.0563 45.776 49.2003 45.728V46.856C49.0323 46.928 48.8283 46.988 48.5883 47.036C48.3483 47.092 48.0803 47.12 47.7843 47.12C47.4163 47.12 47.0883 47.06 46.8003 46.94C46.5123 46.812 46.2843 46.596 46.1163 46.292C45.9563 45.988 45.8763 45.564 45.8763 45.02V41.636H45.0603V40.976L45.9723 40.448L46.4523 39.068H47.4603V40.496H49.1403V41.636H47.4603V45.008C47.4603 45.312 47.5283 45.54 47.6643 45.692C47.8083 45.836 47.9963 45.908 48.2283 45.908ZM51.9795 40.496V47H50.3955V40.496H51.9795ZM51.1995 37.988C51.4315 37.988 51.6315 38.048 51.7995 38.168C51.9675 38.28 52.0515 38.484 52.0515 38.78C52.0515 39.068 51.9675 39.276 51.7995 39.404C51.6315 39.524 51.4315 39.584 51.1995 39.584C50.9515 39.584 50.7435 39.524 50.5755 39.404C50.4075 39.276 50.3235 39.068 50.3235 38.78C50.3235 38.484 50.4075 38.28 50.5755 38.168C50.7435 38.048 50.9515 37.988 51.1995 37.988ZM59.3037 43.736C59.3037 44.28 59.2357 44.76 59.0997 45.176C58.9637 45.592 58.7637 45.948 58.4997 46.244C58.2437 46.532 57.9317 46.752 57.5637 46.904C57.1957 47.048 56.7837 47.12 56.3277 47.12C55.9037 47.12 55.5077 47.048 55.1397 46.904C54.7797 46.752 54.4677 46.532 54.2037 46.244C53.9477 45.948 53.7477 45.592 53.6037 45.176C53.4597 44.76 53.3877 44.28 53.3877 43.736C53.3877 43.016 53.5037 42.408 53.7357 41.912C53.9757 41.408 54.3197 41.028 54.7677 40.772C55.2157 40.508 55.7477 40.376 56.3637 40.376C56.9397 40.376 57.4477 40.508 57.8877 40.772C58.3277 41.028 58.6717 41.408 58.9197 41.912C59.1757 42.408 59.3037 43.016 59.3037 43.736ZM55.0077 43.736C55.0077 44.192 55.0557 44.584 55.1517 44.912C55.2477 45.232 55.3917 45.476 55.5837 45.644C55.7837 45.812 56.0397 45.896 56.3517 45.896C56.6637 45.896 56.9157 45.812 57.1077 45.644C57.3077 45.476 57.4517 45.232 57.5397 44.912C57.6357 44.584 57.6837 44.192 57.6837 43.736C57.6837 43.272 57.6357 42.884 57.5397 42.572C57.4437 42.252 57.2957 42.012 57.0957 41.852C56.9037 41.684 56.6517 41.6 56.3397 41.6C55.8677 41.6 55.5277 41.784 55.3197 42.152C55.1117 42.52 55.0077 43.048 55.0077 43.736ZM64.116 40.376C64.796 40.376 65.332 40.564 65.724 40.94C66.116 41.316 66.312 41.924 66.312 42.764V47H64.716V43.064C64.716 42.576 64.632 42.212 64.464 41.972C64.296 41.724 64.032 41.6 63.672 41.6C63.136 41.6 62.772 41.792 62.58 42.176C62.388 42.552 62.292 43.1 62.292 43.82V47H60.696V40.496H61.92L62.148 41.348H62.208C62.352 41.124 62.52 40.94 62.712 40.796C62.904 40.652 63.12 40.548 63.36 40.484C63.6 40.412 63.852 40.376 64.116 40.376Z" fill="#888888"/>
<defs>
<clipPath id="clip0_325_170">
<rect width="34" height="34" fill="white" transform="translate(17)"/>
</clipPath>
</defs>
</svg>
