<svg width="32" height="42" viewBox="0 0 32 42" fill="none" xmlns="http://www.w3.org/2000/svg">
<path d="M16 2C10.48 2 6 6.48 6 12C6 17.52 10.48 22 16 22C21.52 22 26 17.52 26 12C26 6.48 21.52 2 16 2ZM14 15.5V8.5C14 8.09 14.47 7.85 14.8 8.1L19.47 11.6C19.74 11.8 19.74 12.2 19.47 12.4L14.8 15.9C14.47 16.15 14 15.91 14 15.5Z" fill="#888888"/>
<path d="M7.296 30.432L4.536 39H2.748L0 30.432H1.716L3.216 35.676C3.256 35.82 3.304 36.008 3.36 36.24C3.424 36.464 3.48 36.696 3.528 36.936C3.584 37.168 3.624 37.376 3.648 37.56C3.672 37.376 3.708 37.168 3.756 36.936C3.812 36.704 3.868 36.472 3.924 36.24C3.98 36.008 4.032 35.82 4.08 35.676L5.568 30.432H7.296ZM9.76078 32.496V39H8.17678V32.496H9.76078ZM8.98078 29.988C9.21278 29.988 9.41278 30.048 9.58078 30.168C9.74878 30.28 9.83278 30.484 9.83278 30.78C9.83278 31.068 9.74878 31.276 9.58078 31.404C9.41278 31.524 9.21278 31.584 8.98078 31.584C8.73278 31.584 8.52478 31.524 8.35678 31.404C8.18878 31.276 8.10478 31.068 8.10478 30.78C8.10478 30.484 8.18878 30.28 8.35678 30.168C8.52478 30.048 8.73278 29.988 8.98078 29.988ZM13.5089 39.12C12.8129 39.12 12.2489 38.84 11.8169 38.28C11.3849 37.712 11.1689 36.872 11.1689 35.76C11.1689 34.648 11.3889 33.808 11.8289 33.24C12.2689 32.664 12.8449 32.376 13.5569 32.376C13.8529 32.376 14.1089 32.42 14.3249 32.508C14.5489 32.588 14.7409 32.7 14.9009 32.844C15.0609 32.988 15.2009 33.148 15.3209 33.324H15.3689C15.3529 33.212 15.3329 33.04 15.3089 32.808C15.2849 32.576 15.2729 32.36 15.2729 32.16V29.88H16.8689V39H15.6449L15.3449 38.148H15.2729C15.1689 38.324 15.0369 38.488 14.8769 38.64C14.7169 38.784 14.5249 38.9 14.3009 38.988C14.0769 39.076 13.8129 39.12 13.5089 39.12ZM14.0369 37.896C14.5249 37.896 14.8689 37.736 15.0689 37.416C15.2689 37.096 15.3689 36.612 15.3689 35.964V35.772C15.3689 35.068 15.2729 34.532 15.0809 34.164C14.8889 33.796 14.5369 33.612 14.0249 33.612C13.6249 33.612 13.3169 33.804 13.1009 34.188C12.8929 34.564 12.7889 35.096 12.7889 35.784C12.7889 36.472 12.8969 36.996 13.1129 37.356C13.3289 37.716 13.6369 37.896 14.0369 37.896ZM21.1505 32.376C21.7105 32.376 22.1905 32.496 22.5905 32.736C22.9985 32.968 23.3145 33.304 23.5385 33.744C23.7625 34.176 23.8745 34.704 23.8745 35.328V36.096H19.8905C19.9065 36.688 20.0505 37.148 20.3225 37.476C20.6025 37.796 20.9945 37.956 21.4985 37.956C21.8985 37.956 22.2545 37.916 22.5665 37.836C22.8785 37.748 23.2025 37.624 23.5385 37.464V38.676C23.2345 38.828 22.9185 38.94 22.5905 39.012C22.2625 39.084 21.8585 39.12 21.3785 39.12C20.7705 39.12 20.2305 39 19.7585 38.76C19.2945 38.512 18.9305 38.14 18.6665 37.644C18.4025 37.148 18.2705 36.532 18.2705 35.796C18.2705 35.052 18.3905 34.428 18.6305 33.924C18.8705 33.412 19.2065 33.028 19.6385 32.772C20.0785 32.508 20.5825 32.376 21.1505 32.376ZM21.1745 33.492C20.8145 33.492 20.5225 33.624 20.2985 33.888C20.0825 34.144 19.9545 34.528 19.9145 35.04H22.3625C22.3625 34.736 22.3185 34.468 22.2305 34.236C22.1425 34.004 22.0105 33.824 21.8345 33.696C21.6665 33.56 21.4465 33.492 21.1745 33.492ZM30.831 35.736C30.831 36.28 30.763 36.76 30.627 37.176C30.491 37.592 30.291 37.948 30.027 38.244C29.771 38.532 29.459 38.752 29.091 38.904C28.723 39.048 28.311 39.12 27.855 39.12C27.431 39.12 27.035 39.048 26.667 38.904C26.307 38.752 25.995 38.532 25.731 38.244C25.475 37.948 25.275 37.592 25.131 37.176C24.987 36.76 24.915 36.28 24.915 35.736C24.915 35.016 25.031 34.408 25.263 33.912C25.503 33.408 25.847 33.028 26.295 32.772C26.743 32.508 27.275 32.376 27.891 32.376C28.467 32.376 28.975 32.508 29.415 32.772C29.855 33.028 30.199 33.408 30.447 33.912C30.703 34.408 30.831 35.016 30.831 35.736ZM26.535 35.736C26.535 36.192 26.583 36.584 26.679 36.912C26.775 37.232 26.919 37.476 27.111 37.644C27.311 37.812 27.567 37.896 27.879 37.896C28.191 37.896 28.443 37.812 28.635 37.644C28.835 37.476 28.979 37.232 29.067 36.912C29.163 36.584 29.211 36.192 29.211 35.736C29.211 35.272 29.163 34.884 29.067 34.572C28.971 34.252 28.823 34.012 28.623 33.852C28.431 33.684 28.179 33.6 27.867 33.6C27.395 33.6 27.055 33.784 26.847 34.152C26.639 34.52 26.535 35.048 26.535 35.736Z" fill="#888888"/>
</svg>
